<svg xmlns="http://www.w3.org/2000/svg" viewBox="-5.712 -8.348 268.893 108.963">
  <g transform="matrix(0.812919, 0, 0, 0.783312, -101.541298, -127.293488)" style="">
    <path d="M 266.24 254.63 C259.97,256.52 256.57,256.23 250.27,253.29 C245.72,251.18 243.00,246.34 243.00,240.38 C243.01,230.47 249.02,225.90 264.50,224.01 C277.21,222.45 278.40,221.84 277.66,217.21 C276.79,211.79 274.03,210.00 266.52,210.00 C259.83,210.00 255.76,212.04 254.49,216.03 C253.99,217.59 252.97,218.00 249.49,218.00 C247.09,218.00 244.83,217.54 244.48,216.97 C243.24,214.96 247.89,207.52 252.08,204.80 C259.39,200.06 272.29,199.82 280.38,204.25 C287.10,207.94 287.99,210.87 288.04,229.50 C288.07,238.30 288.46,247.41 288.91,249.75 L 289.73 254.00 L 284.83 254.00 C281.36,254.00 279.80,253.57 279.47,252.50 C278.67,249.95 278.35,248.74 277.72,248.55 C277.18,248.38 276.40,248.97 274.89,250.13 C274.73,250.26 274.56,250.38 274.39,250.52 C272.41,252.02 268.75,253.87 266.24,254.63 ZM 355.79 245.31 L 355.50 254.50 L 351.34 254.80 C348.73,254.99 346.87,254.62 346.34,253.80 C345.38,252.32 344.56,187.88 345.46,184.32 C345.97,182.28 346.64,182.00 351.02,182.00 L 356.00 182.00 L 356.00 225.47 L 367.32 214.18 L 378.64 202.89 L 384.57 203.19 L 390.50 203.50 L 380.73 213.61 L 370.96 223.73 L 374.41 228.61 C390.06,250.75 392.09,254.00 390.31,254.07 C389.31,254.11 387.33,254.29 385.90,254.48 C381.57,255.06 379.18,252.97 371.68,242.07 C367.73,236.33 363.99,231.48 363.38,231.28 C362.76,231.08 360.86,232.09 359.16,233.52 C356.17,236.03 356.06,236.41 355.79,245.31 ZM 329.99 253.00 C318.66,258.81 300.32,254.31 295.93,244.65 C293.14,238.50 293.35,238.00 298.76,238.00 C303.04,238.00 303.64,238.29 304.80,240.91 C307.54,247.09 321.64,249.45 326.55,244.55 C329.64,241.45 329.73,237.52 326.75,235.59 C325.51,234.80 320.76,233.22 316.19,232.09 C301.31,228.42 296.98,225.20 296.30,217.28 C295.54,208.45 302.31,202.33 314.00,201.27 C324.71,200.29 334.10,204.82 336.94,212.32 C338.59,216.69 338.33,217.00 333.00,217.00 C329.34,217.00 328.00,216.62 328.00,215.57 C328.00,212.44 323.00,210.00 316.59,210.00 C309.52,210.00 306.00,211.84 306.00,215.53 C306.00,218.94 309.23,220.72 320.67,223.61 C335.95,227.48 339.72,231.12 338.77,241.04 C338.23,246.67 335.75,250.04 329.99,253.00 ZM 403.75 254.37 C401.29,255.03 399.44,255.01 396.75,254.31 C395.14,253.89 395.00,251.80 395.00,228.43 L 395.00 203.00 L 406.00 203.00 L 406.00 253.77 ZM 258.25 246.54 C266.75,250.32 278.00,242.52 278.00,232.85 C278.00,230.73 277.83,229.00 277.63,229.00 C274.69,229.00 259.09,232.42 256.92,233.54 C251.38,236.41 252.13,243.82 258.25,246.54 ZM 405.25 190.19 C401.81,193.14 399.12,193.15 395.75,190.21 C393.45,188.21 393.49,182.77 395.83,180.65 C398.26,178.46 403.28,178.55 405.35,180.83 C407.51,183.22 407.46,188.29 405.25,190.19 Z" fill="rgb(2,2,2)"/>
    <path d="M 227.99 254.25 L 228.00 267.00 L 207.00 267.00 L 207.00 257.12 C207.00,250.23 206.61,246.92 205.70,246.16 C204.98,245.57 200.37,244.95 195.45,244.79 L 186.50 244.50 L 186.22 234.25 L 185.93 224.00 L 176.59 224.00 C170.08,224.00 166.91,224.40 166.15,225.32 C165.51,226.09 164.94,232.38 164.78,240.57 L 164.50 254.50 L 154.25 254.78 L 144.00 255.07 L 143.95 251.78 C143.93,249.98 143.95,241.30 144.00,232.51 C144.09,217.36 144.22,216.30 146.58,212.27 C147.98,209.88 150.81,207.03 153.03,205.76 C157.41,203.26 158.05,202.00 154.96,202.00 C153.84,202.00 151.07,200.27 148.81,198.16 C145.09,194.69 144.64,193.76 144.21,188.49 C143.64,181.62 145.34,177.64 150.27,174.35 C157.28,169.67 165.63,170.54 170.86,176.49 C176.66,183.09 176.27,191.96 169.92,198.32 C167.76,200.47 166.00,202.41 166.00,202.62 C166.00,202.83 170.50,203.00 176.00,203.00 L 186.00 203.00 L 186.00 224.00 L 195.44 224.00 C200.63,224.00 205.14,223.58 205.46,223.07 C205.78,222.55 204.67,221.33 203.00,220.34 C199.65,218.36 196.00,211.82 196.00,207.81 C196.00,201.84 200.63,195.22 206.32,193.07 C218.50,188.45 230.40,199.36 227.00,212.02 C225.73,216.71 221.00,221.68 216.74,222.79 L 213.61 223.60 L 217.55 225.64 C221.97,227.92 225.48,232.47 226.98,237.88 C227.54,239.87 227.99,247.24 227.99,254.25 Z" fill="rgb(129,60,153)"/>
    
  </g>
</svg>